<svg id="Icons" height="512" viewBox="0 0 60 60" width="512" xmlns="http://www.w3.org/2000/svg"><path d="m14 54v4a1 1 0 0 1 -1 1h-8a1 1 0 0 1 -1-1v-4z" fill="#9ea5b2"/><path d="m56 54v4a1 1 0 0 1 -1 1h-8a1 1 0 0 1 -1-1v-4z" fill="#9ea5b2"/><rect fill="#b9bfcc" height="14" rx="2" width="58" x="1" y="41"/><rect fill="#25a3da" height="4" rx="2" width="20" x="5" y="46"/><rect fill="#25a3da" height="4" rx="2" width="6" x="29" y="46"/><rect fill="#31b791" height="4" rx="2" width="6" x="49" y="46"/><circle cx="30" cy="19" fill="#346d92" r="18"/><path d="m30 0a19 19 0 1 0 19 19 19.021 19.021 0 0 0 -19-19zm-16.949 20h6.975a34.108 34.108 0 0 0 .882 7h-5.9a16.873 16.873 0 0 1 -1.957-7zm17.949-11v-6.845c2.19.612 4.13 3.188 5.41 6.845zm6.024 2a31.915 31.915 0 0 1 .951 7h-6.975v-7zm-8.024-8.845v6.845h-5.41c1.28-3.657 3.22-6.233 5.41-6.845zm0 8.845v7h-6.975a31.915 31.915 0 0 1 .951-7zm-8.974 7h-6.975a16.873 16.873 0 0 1 1.957-7h5.9a34.108 34.108 0 0 0 -.882 7zm2 2h6.974v7h-6.024a31.915 31.915 0 0 1 -.951-7zm6.974 9v6.845c-2.19-.612-4.13-3.188-5.41-6.845zm2 6.845v-6.845h5.41c-1.28 3.657-3.22 6.233-5.41 6.845zm0-8.845v-7h6.975a31.915 31.915 0 0 1 -.951 7zm8.974-7h6.975a16.873 16.873 0 0 1 -1.957 7h-5.9a34.108 34.108 0 0 0 .882-7zm0-2a34.108 34.108 0 0 0 -.882-7h5.9a16.873 16.873 0 0 1 1.957 7zm3.743-9h-5.183a18.015 18.015 0 0 0 -3.195-6.129 17.05 17.05 0 0 1 8.378 6.129zm-19.056-6.129a18.015 18.015 0 0 0 -3.195 6.129h-5.183a17.05 17.05 0 0 1 8.378-6.129zm-8.378 26.129h5.183a18.015 18.015 0 0 0 3.2 6.129 17.05 17.05 0 0 1 -8.383-6.129zm19.056 6.129a18.015 18.015 0 0 0 3.195-6.129h5.183a17.05 17.05 0 0 1 -8.378 6.129z" fill="#295474"/></svg>