<svg id="Icons" height="512" viewBox="0 0 60 60" width="512" xmlns="http://www.w3.org/2000/svg"><path d="m19 53v4a2 2 0 0 1 -2 2h-3a2 2 0 0 1 -2-2v-4z" fill="#9ebbce"/><path d="m48 53v4a2 2 0 0 1 -2 2h-3a2 2 0 0 1 -2-2v-4z" fill="#9ebbce"/><rect fill="#bfdbf0" height="54" rx="2" width="40" x="10" y="1"/><g fill="#4184a9"><rect height="8" rx="2" transform="matrix(-1 0 0 -1 60 20)" width="32" x="14" y="6"/><rect height="8" rx="2" transform="matrix(-1 0 0 -1 60 44)" width="32" x="14" y="18"/><rect height="8" rx="2" transform="matrix(-1 0 0 -1 60 68)" width="32" x="14" y="30"/><rect height="8" rx="2" transform="matrix(-1 0 0 -1 60 92)" width="32" x="14" y="42"/></g><path d="m25 11h-1a1 1 0 0 1 0-2h1a1 1 0 0 1 0 2z" fill="#86fdaa"/><path d="m41 11h-10a1 1 0 0 1 0-2h10a1 1 0 0 1 0 2z" fill="#35718a"/><path d="m20 11h-1a1 1 0 0 1 0-2h1a1 1 0 0 1 0 2z" fill="#86fdaa"/><path d="m25 23h-1a1 1 0 0 1 0-2h1a1 1 0 0 1 0 2z" fill="#86fdaa"/><path d="m41 23h-10a1 1 0 0 1 0-2h10a1 1 0 0 1 0 2z" fill="#35718a"/><path d="m20 23h-1a1 1 0 0 1 0-2h1a1 1 0 0 1 0 2z" fill="#86fdaa"/><path d="m25 35h-1a1 1 0 0 1 0-2h1a1 1 0 0 1 0 2z" fill="#86fdaa"/><path d="m41 35h-10a1 1 0 0 1 0-2h10a1 1 0 0 1 0 2z" fill="#35718a"/><path d="m20 35h-1a1 1 0 0 1 0-2h1a1 1 0 0 1 0 2z" fill="#86fdaa"/><path d="m25 47h-1a1 1 0 0 1 0-2h1a1 1 0 0 1 0 2z" fill="#86fdaa"/><path d="m41 47h-10a1 1 0 0 1 0-2h10a1 1 0 0 1 0 2z" fill="#35718a"/><path d="m20 47h-1a1 1 0 0 1 0-2h1a1 1 0 0 1 0 2z" fill="#86fdaa"/></svg>