<svg id="Icons" height="512" viewBox="0 0 60 60" width="512" xmlns="http://www.w3.org/2000/svg"><path d="m22.99 49h-19.99a2.006 2.006 0 0 1 -2-2v-44a2.006 2.006 0 0 1 2-2h44a2.006 2.006 0 0 1 2 2v22.14z" fill="#ec6c41"/><path d="m49 10v-2h-7v-7h-2v7h-14v-7h-2v7h-14v-7h-2v7h-7v2h15v6h-15v2h7v6h-7v2h15v6h-15v2h7v6h-7v2h15v7h2v-7h5v-2h-13v-6h15v-2h-7v-6h18v-2h-10v-6h23v-2h-15v-6zm-25 14h-14v-6h14zm8-8h-14v-6h14z" fill="#d95f3d"/><path d="m38.269 13.108a29.069 29.069 0 0 1 12.883 18.325.714.714 0 0 0 1.264.306 9.928 9.928 0 0 0 1.474-3.177.716.716 0 0 1 1.283-.189 23.46 23.46 0 0 1 3.827 12.594c0 9.959-8.507 18.033-19 18.033s-19-8.074-19-18.033c0-5.8 1.015-9.237 1.865-11.1a.806.806 0 0 1 1.5.092 5.4 5.4 0 0 0 1.222 2.155 1 1 0 0 0 1.628-.336 18.061 18.061 0 0 1 3.785-4.778c4.445-4.441 5.893-7.492 6.126-13.275a.757.757 0 0 1 1.143-.617z" fill="#b52c53"/><path d="m38.836 26.08a19.707 19.707 0 0 1 8.942 16.191.543.543 0 0 0 .945.356 6.713 6.713 0 0 0 1.446-2.939.525.525 0 0 1 .95-.177 11.959 11.959 0 0 1 1.881 6.538 12.967 12.967 0 0 1 -13 12.933c-6 0-12-4.195-12-11.338 0-6.649 3.257-9.457 5.5-11.806 3.037-3.181 4.371-5.172 4.533-9.309a.529.529 0 0 1 .803-.449z" fill="#f7b14e"/><g fill="#fff"><path d="m35.707 46.293a1 1 0 0 0 -1.414 0l-2 2a1 1 0 0 0 0 1.414l2 2a1 1 0 0 0 1.414-1.414l-1.293-1.293 1.293-1.293a1 1 0 0 0 0-1.414z"/><path d="m47.707 48.293-2-2a1 1 0 0 0 -1.414 1.414l1.293 1.293-1.293 1.293a1 1 0 1 0 1.414 1.414l2-2a1 1 0 0 0 0-1.414z"/><path d="m41.316 45.052a1 1 0 0 0 -1.264.632l-2 6a1 1 0 1 0 1.9.632l2-6a1 1 0 0 0 -.636-1.264z"/></g></svg>