<svg id="Icons" height="512" viewBox="0 0 60 60" width="512" xmlns="http://www.w3.org/2000/svg"><path d="m1.68 45.51v-.01l8.254-18.155a4 4 0 0 1 3.641-2.345h32.85a4 4 0 0 1 3.641 2.345l8.254 18.155v.01z" fill="#9ea5b2"/><circle cx="30" cy="18" fill="#346d92" r="2"/><rect fill="#b9bfcc" height="14" rx="2" width="58" x="1" y="45"/><rect fill="#25a3da" height="4" rx="2" width="20" x="5" y="50"/><rect fill="#25a3da" height="4" rx="2" width="6" x="29" y="50"/><rect fill="#31b791" height="4" rx="2" width="6" x="49" y="50"/><g fill="#346d92"><path d="m34 14a1 1 0 0 1 -.773-.364 4 4 0 0 0 -6.456 0 1 1 0 1 1 -1.544-1.272 6 6 0 0 1 9.544 0 1 1 0 0 1 -.771 1.636z"/><path d="m37 10a1 1 0 0 1 -.719-.3 8.667 8.667 0 0 0 -12.562 0 1 1 0 0 1 -1.438-1.39 10.667 10.667 0 0 1 15.438 0 1 1 0 0 1 -.719 1.69z"/><path d="m40 6a1 1 0 0 1 -.693-.279 13.5 13.5 0 0 0 -18.614 0 1 1 0 0 1 -1.386-1.442 15.5 15.5 0 0 1 21.386 0 1 1 0 0 1 -.693 1.721z"/></g></svg>