<svg id="Icons" height="512" viewBox="0 0 60 60" width="512" xmlns="http://www.w3.org/2000/svg"><path d="m12 19-.889-16.007a2.11 2.11 0 0 0 -2.111-1.993 2.11 2.11 0 0 0 -2.111 1.993l-.889 16.007 3 2z" fill="#b9bfcc"/><path d="m36 19-.889-16.007a2.11 2.11 0 0 0 -2.111-1.993 2.11 2.11 0 0 0 -2.107 1.993l-.893 16.007 3 2z" fill="#b9bfcc"/><path d="m38.67 19.89a2.046 2.046 0 0 0 -1.67-.89h-32a2.006 2.006 0 0 0 -2 2v18a2 2 0 0 0 2 2h34z" fill="#9ea5b2"/><path d="m41.08 37h-38.08a2.006 2.006 0 0 1 -2-2v-10a2.006 2.006 0 0 1 2-2h38z" fill="#b9bfcc"/><circle cx="21" cy="30" fill="#79808f" r="3"/><rect fill="#d75a4a" height="25" rx="2" width="32" x="27" y="34"/><path d="m50 27a7 7 0 0 1 -14 0c0-6 7-12 7-12 0 6 7 6 7 12z" fill="#ec3a48"/><path d="m43 34a3.259 3.259 0 0 0 3-3.461 11.781 11.781 0 0 0 -1.92-5.539 25.832 25.832 0 0 1 -1.98 2.12c-1.706 1.686-2.1 2.2-2.1 3.419a3.259 3.259 0 0 0 3 3.461z" fill="#fccb55"/><path d="m10 34a4 4 0 0 1 -4-4 1 1 0 0 1 2 0 2 2 0 0 0 4 0 1 1 0 0 1 2 0 4 4 0 0 1 -4 4z" fill="#31b791"/><path d="m10 30a1 1 0 0 1 -1-1v-2a1 1 0 0 1 2 0v2a1 1 0 0 1 -1 1z" fill="#31b791"/><path d="m59 40v-2h-9v-4h-2v4h-10v-4h-2v4h-9v2h4v3h-4v2h9v3h-9v2h4v3h-4v2h9v4h2v-4h10v4h2v-4h9v-2h-4v-3h4v-2h-9v-3h9v-2h-4v-3zm-26 0h9v3h-9zm0 10h9v3h-9zm20 3h-9v-3h9zm-5-5h-10v-3h10zm5-5h-9v-3h9z" fill="#ba483f"/></svg>