<svg id="Icons" height="512" viewBox="0 0 60 60" width="512" xmlns="http://www.w3.org/2000/svg"><path d="m28 7.77v-4.77a2.006 2.006 0 0 1 2-2 1.955 1.955 0 0 1 1.41.59 1.955 1.955 0 0 1 .59 1.41v4.77z" fill="#b9bfcc"/><path d="m30 7a3 3 0 0 1 3 3v23a0 0 0 0 1 0 0h-6a0 0 0 0 1 0 0v-23a3 3 0 0 1 3-3z" fill="#ccd0da"/><path d="m8.289 10.124-1.224-4.61a2.006 2.006 0 0 1 1.42-2.446 2.013 2.013 0 0 1 2.446 1.42l1.224 4.612z" fill="#b9bfcc"/><path d="m47.844 9.1 1.223-4.61a2.013 2.013 0 0 1 2.446-1.42 2.006 2.006 0 0 1 1.42 2.446l-1.223 4.61z" fill="#b9bfcc"/><path d="m12.79 31-4.9-18.46a3 3 0 0 1 5.8-1.54l5.31 20-3 1z" fill="#ccd0da"/><path d="m41 31 5.31-20a3 3 0 0 1 5.8 1.54l-4.902 18.46-3.208 1z" fill="#ccd0da"/><path d="m53 55-1.447 2.894a2 2 0 0 1 -1.789 1.106h-3.528a2 2 0 0 1 -1.789-1.106l-1.447-2.894v-1h10z" fill="#8991a0"/><path d="m17 55-1.447 2.894a2 2 0 0 1 -1.789 1.106h-3.528a2 2 0 0 1 -1.789-1.106l-1.447-2.894v-1h10z" fill="#8991a0"/><path d="m4 51v3a1 1 0 0 0 1 1h50a1 1 0 0 0 1-1v-22a1 1 0 0 0 -1-1h-50a1 1 0 0 0 -1 1z" fill="#a3aab7"/><rect fill="#b9bfcc" height="16" rx="2" width="58" x="1" y="35"/><path d="m55 42v4a1 1 0 0 1 -1 1h-6a1 1 0 0 1 -1-1v-4a1 1 0 0 1 1-1 1 1 0 0 0 1-1 1 1 0 0 1 1-1h2a1 1 0 0 1 1 1 1 1 0 0 0 1 1 1 1 0 0 1 1 1z" fill="#8991a0"/><circle cx="25" cy="43" fill="#31b791" r="3"/><circle cx="35" cy="43" fill="#f8536c" r="3"/><g fill="#8991a0"><path d="m6 40h-1a1 1 0 0 1 0-2h1a1 1 0 0 1 0 2z"/><path d="m11 40h-1a1 1 0 0 1 0-2h1a1 1 0 0 1 0 2z"/><path d="m16 40h-1a1 1 0 0 1 0-2h1a1 1 0 0 1 0 2z"/><path d="m6 44h-1a1 1 0 0 1 0-2h1a1 1 0 0 1 0 2z"/><path d="m11 44h-1a1 1 0 0 1 0-2h1a1 1 0 0 1 0 2z"/><path d="m16 44h-1a1 1 0 0 1 0-2h1a1 1 0 0 1 0 2z"/><path d="m6 48h-1a1 1 0 0 1 0-2h1a1 1 0 0 1 0 2z"/><path d="m11 48h-1a1 1 0 0 1 0-2h1a1 1 0 0 1 0 2z"/><path d="m16 48h-1a1 1 0 0 1 0-2h1a1 1 0 0 1 0 2z"/></g></svg>