<svg id="Icons" height="512" viewBox="0 0 60 60" width="512" xmlns="http://www.w3.org/2000/svg"><path d="m3 24h40v6h-40z" fill="#3778c6"/><path d="m3 10h40v6h-40z" fill="#3778c6"/><rect fill="#e1efff" height="10" rx="2" width="44" x="1" y="1"/><rect fill="#e1efff" height="10" rx="2" width="44" x="1" y="15"/><path d="m3 39a2.006 2.006 0 0 1 -2-2v-6a2.006 2.006 0 0 1 2-2h40a2.006 2.006 0 0 1 2 2v8z" fill="#e1efff"/><rect fill="#f26d49" height="24" rx="2" width="34" x="25" y="35"/><path d="m59 44v-2h-10v-7h-2v7h-8v-7h-2v7h-9.33a1 1 0 0 0 0 2h14.33v6h-10a1 1 0 0 0 0 2h5v7h2v-7h8v7h2v-7h10v-2h-4v-6zm-6 6h-9v-6h9z" fill="#df5f44"/><path d="m8 7h-2a1 1 0 0 1 0-2h2a1 1 0 0 1 0 2z" fill="#4ab591"/><g fill="#b0ccdd"><path d="m28 7h-10a1 1 0 0 1 0-2h10a1 1 0 0 1 0 2z"/><path d="m31 11v-3a1 1 0 0 1 2 0v3z"/><path d="m35 11v-3a1 1 0 0 1 2 0v3z"/><path d="m39 11v-3a1 1 0 0 1 2 0v3z"/></g><path d="m8 21h-2a1 1 0 0 1 0-2h2a1 1 0 0 1 0 2z" fill="#4ab591"/><path d="m28 21h-10a1 1 0 0 1 0-2h10a1 1 0 0 1 0 2z" fill="#b0ccdd"/><path d="m31 25v-3a1 1 0 0 1 2 0v3z" fill="#b0ccdd"/><path d="m35 25v-3a1 1 0 0 1 2 0v3z" fill="#b0ccdd"/><path d="m39 25v-3a1 1 0 0 1 2 0v3z" fill="#b0ccdd"/><path d="m8 35h-2a1 1 0 0 1 0-2h2a1 1 0 0 1 0 2z" fill="#4ab591"/><path d="m21 35h-3a1 1 0 0 1 0-2h3a1 1 0 0 1 0 2z" fill="#b0ccdd"/><path d="m34 52c0 3.87-4.7 7-10.5 7-6.5 0-11.5-3.13-11.5-7a10.718 10.718 0 0 1 2-6c1.346-2.019.428-5.4-.317-7.389a.471.471 0 0 1 .743-.527c1.618 1.334 4.168 3.785 5.227 6.692a.315.315 0 0 0 .607-.034 33.044 33.044 0 0 1 1.86-6.242 16.113 16.113 0 0 1 4.322-5.351.652.652 0 0 1 1.038.666c-.487 2.056-.942 5.356.52 7.185 4 5 6 7 6 11z" fill="#cd4c60"/><path d="m26.647 49.674a.972.972 0 0 1 1.848-.01c1.773 4.992-1.414 9.336-5.063 9.336-4.288 0-6.432-2-6.432-5a5.742 5.742 0 0 1 1.6-3.741.974.974 0 0 1 1.66.4 2.845 2.845 0 0 0 2.74 2.341c2.145 0 3.164-1.726 3.647-3.326z" fill="#fde05e"/></svg>