<svg id="Icons" height="512" viewBox="0 0 60 60" width="512" xmlns="http://www.w3.org/2000/svg"><path d="m43 16v6a3 3 0 0 1 -3 3v1h-36v-1a3 3 0 0 1 -3-3v-6a3 3 0 0 1 3-3v-1h36v1a3 3 0 0 1 3 3z" fill="#35718a"/><rect fill="#4184a9" height="12" rx="3" width="42" x="1" y="1"/><rect fill="#4184a9" height="12" rx="3" width="42" x="1" y="25"/><circle cx="8" cy="7" fill="#86fdaa" r="2"/><circle cx="16" cy="7" fill="#86fdaa" r="2"/><circle cx="8" cy="19" fill="#6de08e" r="2"/><circle cx="16" cy="19" fill="#6de08e" r="2"/><circle cx="8" cy="31" fill="#86fdaa" r="2"/><circle cx="16" cy="31" fill="#86fdaa" r="2"/><path d="m38 8h-13a1 1 0 0 1 0-2h13a1 1 0 0 1 0 2z" fill="#35718a"/><path d="m35 20h-10a1 1 0 0 1 0-2h10a1 1 0 0 1 0 2z" fill="#296172"/><path d="m56.311 30.025a22.893 22.893 0 0 1 2.454 7.289c1.757 11.033-6.565 21.531-17.765 21.686a17.768 17.768 0 0 1 -18-17.978 25.427 25.427 0 0 1 1.527-9.053 1.123 1.123 0 0 1 2.093 0 6.449 6.449 0 0 0 2.39 3.055s0-17.364 14.027-25.866a1.127 1.127 0 0 1 1.7 1.069c-.394 4.315-.3 14.212 7.309 21.8 0 0 1.246 0 2.264-1.959a1.129 1.129 0 0 1 2.001-.043z" fill="#e69b45"/><path d="m51.005 49.118a10 10 0 0 1 -20 0c0-7.334 6.96-15.347 9.268-17.8a1.013 1.013 0 0 1 1.468 0c2.304 2.453 9.264 10.466 9.264 17.8z" fill="#fde05e"/></svg>