<svg id="Icons" height="512" viewBox="0 0 60 60" width="512" xmlns="http://www.w3.org/2000/svg"><path d="m3 37h54v7h-54z" fill="#296172"/><path d="m3 16h54v7h-54z" fill="#296172"/><rect fill="#4184a9" height="16" rx="2" width="58" x="1" y="22"/><rect fill="#4184a9" height="16" rx="2" width="58" x="1" y="43"/><rect fill="#4184a9" height="16" rx="2" width="58" x="1" y="1"/><circle cx="8" cy="9" fill="#86fdaa" r="3"/><circle cx="18" cy="9" fill="#86fdaa" r="3"/><rect fill="#35718a" height="4" rx="2" width="18" x="26" y="7"/><circle cx="8" cy="30" fill="#86fdaa" r="3"/><circle cx="18" cy="30" fill="#86fdaa" r="3"/><rect fill="#35718a" height="4" rx="2" width="18" x="26" y="28"/><circle cx="8" cy="51" fill="#86fdaa" r="3"/><circle cx="18" cy="51" fill="#86fdaa" r="3"/><g fill="#35718a"><rect height="4" rx="2" width="18" x="26" y="49"/><path d="m50 8h-1a1 1 0 0 1 0-2h1a1 1 0 0 1 0 2z"/><path d="m55 8h-1a1 1 0 0 1 0-2h1a1 1 0 0 1 0 2z"/><path d="m50 12h-1a1 1 0 0 1 0-2h1a1 1 0 0 1 0 2z"/><path d="m55 12h-1a1 1 0 0 1 0-2h1a1 1 0 0 1 0 2z"/><path d="m50 29h-1a1 1 0 0 1 0-2h1a1 1 0 0 1 0 2z"/><path d="m55 29h-1a1 1 0 0 1 0-2h1a1 1 0 0 1 0 2z"/><path d="m50 33h-1a1 1 0 0 1 0-2h1a1 1 0 0 1 0 2z"/><path d="m55 33h-1a1 1 0 0 1 0-2h1a1 1 0 0 1 0 2z"/><path d="m50 50h-1a1 1 0 0 1 0-2h1a1 1 0 0 1 0 2z"/><path d="m55 50h-1a1 1 0 0 1 0-2h1a1 1 0 0 1 0 2z"/><path d="m50 54h-1a1 1 0 0 1 0-2h1a1 1 0 0 1 0 2z"/><path d="m55 54h-1a1 1 0 0 1 0-2h1a1 1 0 0 1 0 2z"/></g></svg>