<svg id="Icons" height="512" viewBox="0 0 60 60" width="512" xmlns="http://www.w3.org/2000/svg"><rect fill="#346d92" height="58" rx="4" width="58" x="1" y="1"/><g fill="#f0f2f5"><path d="m9 12h37.732l-2.269-2.72a2.009 2.009 0 0 1 .528-3.01 2.068 2.068 0 0 1 2.612.523l4.939 5.927a2.017 2.017 0 0 1 0 2.56l-5 6a2 2 0 0 1 -3.079-2.56l2.269-2.72h-37.732a2 2 0 0 1 -2-2 2 2 0 0 1 2-2z"/><path d="m9 43.993h37.732l-2.269-2.72a2.009 2.009 0 0 1 .528-3.01 2.068 2.068 0 0 1 2.612.523l4.939 5.927a2.017 2.017 0 0 1 0 2.56l-5 6a2 2 0 0 1 -3.079-2.56l2.269-2.72h-37.732a2 2 0 0 1 -2-2 2 2 0 0 1 2-2z"/><path d="m51 27.993h-37.732l2.269-2.72a2.009 2.009 0 0 0 -.528-3.01 2.068 2.068 0 0 0 -2.612.523l-4.939 5.927a2.017 2.017 0 0 0 0 2.56l5 6a2 2 0 0 0 3.079-2.56l-2.269-2.72h37.732a2 2 0 0 0 2-2 2 2 0 0 0 -2-2z"/></g></svg>