<svg id="Icons" height="512" viewBox="0 0 60 60" width="512" xmlns="http://www.w3.org/2000/svg"><path d="m43 16v6a3 3 0 0 1 -3 3v1h-36v-1a3 3 0 0 1 -3-3v-6a3 3 0 0 1 3-3v-1h36v1a3 3 0 0 1 3 3z" fill="#35718a"/><rect fill="#4184a9" height="12" rx="3" width="42" x="1" y="1"/><rect fill="#4184a9" height="12" rx="3" width="42" x="1" y="25"/><circle cx="8" cy="7" fill="#86fdaa" r="2"/><circle cx="16" cy="7" fill="#86fdaa" r="2"/><circle cx="8" cy="19" fill="#6de08e" r="2"/><circle cx="16" cy="19" fill="#6de08e" r="2"/><circle cx="8" cy="31" fill="#86fdaa" r="2"/><circle cx="16" cy="31" fill="#86fdaa" r="2"/><circle cx="41" cy="41" fill="#b0ccdd" r="18"/><circle cx="41" cy="50" fill="#fff" r="2"/><path d="m38 8h-13a1 1 0 0 1 0-2h13a1 1 0 0 1 0 2z" fill="#35718a"/><path d="m38 20h-13a1 1 0 0 1 0-2h13a1 1 0 0 1 0 2z" fill="#296172"/><g fill="#fff"><path d="m53 37a1 1 0 0 1 -.709-.3 15.9 15.9 0 0 0 -22.582 0 1 1 0 1 1 -1.418-1.41 17.9 17.9 0 0 1 25.418 0 1 1 0 0 1 -.709 1.71z"/><path d="m50 42a.993.993 0 0 1 -.731-.318 11.126 11.126 0 0 0 -16.538 0 1 1 0 0 1 -1.462-1.364 13.124 13.124 0 0 1 19.462 0 1 1 0 0 1 -.731 1.682z"/><path d="m45 46a1 1 0 0 1 -.771-.361 4 4 0 0 0 -6.46 0 1 1 0 1 1 -1.54-1.276 6 6 0 0 1 9.54 0 1 1 0 0 1 -.769 1.637z"/></g></svg>