<svg id="Icons" height="512" viewBox="0 0 60 60" width="512" xmlns="http://www.w3.org/2000/svg"><path d="m16 29-.929-26a2.069 2.069 0 0 0 -2.071-2 2.069 2.069 0 0 0 -2.068 2l-.932 26v3h6z" fill="#b9bfcc"/><path d="m50 29-.929-26a2.069 2.069 0 0 0 -2.071-2 2.069 2.069 0 0 0 -2.068 2l-.932 26v3h6z" fill="#b9bfcc"/><rect fill="#9ea5b2" height="30" rx="2" width="50" x="5" y="29"/><rect fill="#b9bfcc" height="20" rx="3" width="58" x="1" y="34"/><g fill="#79808f"><circle cx="23" cy="44" r="4"/><rect height="8" rx="2" width="8" x="33" y="40"/><rect height="8" rx="2" width="8" x="47" y="40"/></g><circle cx="30" cy="18" fill="#346d92" r="2"/><path d="m10 49a4 4 0 0 1 -4-4 1 1 0 0 1 2 0 2 2 0 0 0 4 0 1 1 0 0 1 2 0 4 4 0 0 1 -4 4z" fill="#31b791"/><path d="m10 44a1 1 0 0 1 -1-1v-3a1 1 0 0 1 2 0v3a1 1 0 0 1 -1 1z" fill="#31b791"/><path d="m34 14a1 1 0 0 1 -.773-.364 4 4 0 0 0 -6.456 0 1 1 0 1 1 -1.544-1.272 6 6 0 0 1 9.544 0 1 1 0 0 1 -.771 1.636z" fill="#346d92"/><path d="m37 10a1 1 0 0 1 -.719-.3 8.667 8.667 0 0 0 -12.562 0 1 1 0 0 1 -1.438-1.39 10.667 10.667 0 0 1 15.438 0 1 1 0 0 1 -.719 1.69z" fill="#346d92"/><path d="m40 6a1 1 0 0 1 -.693-.279 13.5 13.5 0 0 0 -18.614 0 1 1 0 0 1 -1.386-1.442 15.5 15.5 0 0 1 21.386 0 1 1 0 0 1 -.693 1.721z" fill="#346d92"/></svg>