<?xml version="1.0" standalone="no"?>
<!DOCTYPE svg PUBLIC "-//W3C//DTD SVG 20010904//EN"
 "http://www.w3.org/TR/2001/REC-SVG-20010904/DTD/svg10.dtd">
<svg version="1.0" xmlns="http://www.w3.org/2000/svg"
 width="700.000000pt" height="700.000000pt" viewBox="0 0 700.000000 700.000000"
 preserveAspectRatio="xMidYMid meet">
<metadata>
Created by potrace 1.14, written by Peter Selinger 2001-2017
</metadata>
<g transform="translate(0.000000,700.000000) scale(0.100000,-0.100000)"
fill="#000000" stroke="none">
<path d="M1941 6868 c-5 -13 -16 -43 -24 -68 -9 -25 -35 -97 -57 -160 -23 -63
-46 -129 -52 -146 -8 -25 -22 -36 -67 -54 -31 -13 -109 -45 -173 -71 l-117
-49 -128 61 c-239 114 -272 129 -280 129 -12 0 -333 -324 -333 -336 0 -6 42
-99 94 -208 62 -130 92 -203 88 -215 -4 -9 -36 -87 -72 -173 l-65 -157 -210
-74 -210 -75 -3 -239 -2 -240 62 -22 c156 -56 361 -131 363 -133 2 -3 53 -126
85 -203 4 -11 18 -42 30 -69 28 -63 28 -73 3 -126 -12 -25 -53 -112 -92 -194
-39 -82 -71 -153 -71 -158 0 -5 74 -84 165 -175 l165 -166 120 57 c66 31 158
75 205 98 l85 41 175 -73 c150 -62 176 -76 181 -97 6 -22 -13 -45 -155 -187
l-162 -162 76 -159 c42 -88 86 -181 97 -207 l20 -47 -67 -163 c-37 -90 -73
-168 -79 -174 -11 -11 -89 -41 -288 -109 -148 -51 -133 -18 -134 -282 -1 -131
3 -233 8 -240 5 -6 53 -26 106 -44 53 -17 103 -36 110 -42 6 -5 12 -7 12 -4 0
3 43 -11 96 -32 l96 -36 24 -60 c13 -33 28 -69 33 -80 54 -121 81 -199 75
-218 -3 -12 -40 -92 -81 -177 -41 -85 -81 -169 -89 -187 l-14 -31 166 -166
c91 -91 169 -166 173 -166 5 0 69 29 142 64 74 35 164 77 200 94 l66 31 173
-72 173 -72 28 -80 c16 -44 50 -140 76 -212 l47 -133 95 -1 c249 -1 376 2 382
9 4 4 25 59 47 122 22 63 55 156 73 205 l32 91 174 72 174 71 157 -75 c86 -42
179 -85 205 -96 l49 -21 164 164 c90 90 164 169 164 175 0 5 -12 35 -26 65
-15 30 -57 118 -95 197 l-68 143 71 172 c39 95 72 173 73 174 1 2 79 30 175
63 l173 60 193 -192 194 -193 0 -167 0 -167 -77 1 c-43 0 -92 0 -109 -1 l-32
-1 0 -490 0 -490 764 0 c721 0 764 1 765 18 1 21 1 943 0 957 -1 6 -44 10
-108 10 l-108 0 -1 163 0 162 133 133 c145 144 197 207 236 283 169 334 4 742
-350 865 -81 28 -140 32 -415 33 l-258 0 0 126 c0 381 -5 485 -22 513 -34 51
-27 50 119 -19 65 -31 155 -74 200 -95 l83 -38 165 165 c91 91 165 169 165
174 0 5 -28 67 -61 137 -34 71 -76 160 -94 199 l-33 72 59 143 c33 79 66 157
74 174 15 31 1 25 318 137 l117 41 -2 241 -3 240 -75 27 c-41 14 -82 29 -90
32 -8 3 -69 25 -135 49 l-120 43 -72 173 -72 172 84 177 c47 98 91 189 98 203
14 24 11 29 -156 196 l-170 172 -46 -24 c-213 -107 -364 -173 -379 -165 -9 5
-64 28 -122 52 -186 74 -201 82 -210 99 -5 10 -37 96 -70 191 -77 220 -76 219
-97 220 -23 1 -423 1 -444 0 -12 -1 -32 -46 -73 -163 -104 -296 -80 -257 -187
-301 -52 -21 -129 -53 -172 -72 l-78 -33 -92 42 c-51 24 -146 69 -212 101
l-120 57 -158 159 c-87 87 -162 159 -166 159 -4 0 -41 -16 -82 -36 -68 -34
-146 -70 -275 -130 l-51 -23 -173 72 -173 72 -28 80 c-16 44 -50 140 -76 213
l-47 132 -238 0 c-238 0 -239 0 -247 -22z m384 -973 c83 -11 225 -63 309 -113
86 -51 211 -166 270 -249 70 -98 133 -259 151 -388 7 -47 7 -175 0 -225 -60
-441 -428 -762 -870 -762 -490 0 -880 401 -870 894 8 334 204 633 509 773 158
73 314 95 501 70z m2658 -334 c15 -6 27 -9 27 -7 0 2 19 -2 43 -9 328 -100
563 -364 621 -700 14 -80 15 -229 2 -295 -66 -323 -284 -573 -593 -678 -76
-26 -111 -32 -232 -39 -473 -27 -883 342 -908 817 l-6 106 55 17 55 17 0 171
0 170 47 67 c58 85 100 129 178 191 115 90 272 160 393 176 28 4 51 8 53 10 8
7 241 -5 265 -14z m-2380 -1993 c-20 -52 -31 -68 -48 -68 -11 0 -10 9 3 43 19
52 30 67 48 67 11 0 11 -8 -3 -42z m1907 -543 c33 -93 63 -171 66 -174 3 -3
110 -6 239 -6 l233 -1 25 65 c14 36 34 91 45 121 l21 55 0 -503 1 -504 -146
146 c-119 119 -155 148 -197 164 -49 19 -112 21 -157 7 -14 -4 -222 64 -235
77 -2 1 -35 79 -73 172 l-70 170 33 70 c79 173 148 316 152 313 1 -2 30 -79
63 -172z m-1328 -99 c385 -97 654 -434 663 -831 7 -335 -174 -639 -470 -791
-138 -72 -266 -102 -415 -98 -234 5 -430 86 -598 248 -69 66 -175 217 -187
266 -1 3 -7 19 -14 35 -64 152 -79 346 -40 522 22 102 99 263 163 342 48 60
156 155 222 197 147 92 277 129 459 132 99 2 137 -2 217 -22z"/>
</g>
</svg>
