<svg height="512pt" viewBox="-97 0 512 512" width="512pt" xmlns="http://www.w3.org/2000/svg"><g fill-rule="evenodd"><path d="m247.171875 88.277344c0 48.75-39.523437 88.273437-88.273437 88.273437-48.753907 0-88.277344-39.523437-88.277344-88.273437 0-48.753906 39.523437-88.277344 88.277344-88.277344 48.75 0 88.273437 39.523438 88.273437 88.277344zm0 0" fill="#efc7a4"/><path d="m66.824219 243.375c-41.027344 21.214844-66.8046878 63.539062-66.824219 109.726562v150.070313c0 4.875 3.953125 8.828125 8.828125 8.828125h300.136719c4.875 0 8.828125-3.953125 8.828125-8.828125v-150.070313c-.019531-46.1875-25.796875-88.511718-66.824219-109.726562zm0 0" fill="#457393"/><path d="m194.207031 229.515625h-70.621093c-19.753907-.050781-39.226563 4.675781-56.761719 13.773437l53.671875 156.425782 38.402344 112.285156 38.398437-112.199219 53.671875-156.425781c-17.527344-9.128906-37-13.882812-56.761719-13.859375zm0 0" fill="#f4f6f8"/><path d="m197.296875 399.800781-38.398437 112.199219-38.402344-112.199219 20.746094-117.316406h35.308593zm0 0" fill="#d94452"/><path d="m194.207031 229.515625-17.65625 52.96875h-35.308593l-17.65625-52.96875zm0 0" fill="#eb5463"/><g fill="#5e8faa"><path d="m35.308594 388.414062c-4.875 0-8.824219-3.953124-8.824219-8.828124v-8.828126c0-4.875 3.949219-8.828124 8.824219-8.828124 4.878906 0 8.828125 3.953124 8.828125 8.828124v8.828126c0 4.875-3.949219 8.828124-8.828125 8.828124zm0 0"/><path d="m52.964844 485.515625h-8.828125c-9.75 0-17.652344-7.902344-17.652344-17.652344v-52.964843c0-4.878907 3.949219-8.828126 8.824219-8.828126 4.878906 0 8.828125 3.949219 8.828125 8.828126v52.964843h8.828125c4.875 0 8.828125 3.949219 8.828125 8.828125 0 4.875-3.953125 8.824219-8.828125 8.824219zm0 0"/><path d="m97.101562 485.515625h-8.824218c-4.875 0-8.828125-3.949219-8.828125-8.824219 0-4.878906 3.953125-8.828125 8.828125-8.828125h8.824218c4.878907 0 8.828126 3.949219 8.828126 8.828125 0 4.875-3.949219 8.824219-8.828126 8.824219zm0 0"/></g></g></svg>