<svg height="512pt" viewBox="0 0 512 512" width="512pt" xmlns="http://www.w3.org/2000/svg"><path d="m512 185.378906v229.519532c0 14.625-11.855469 26.480468-26.484375 26.480468h-8.824219v61.792969c-.007812 3.28125-1.832031 6.292969-4.742187 7.8125-2.910157 1.519531-6.421875 1.296875-9.117188-.574219l-74.242187-51.375-25.511719-17.65625h-213.007813c-14.628906 0-26.484374-11.855468-26.484374-26.480468v-256h361.929687c14.628906 0 26.484375 11.855468 26.484375 26.480468zm0 0" fill="#5e9cea"/><path d="m388.414062 26.484375v229.515625c0 14.625-11.855468 26.484375-26.484374 26.484375h-213.007813l-25.511719 17.652344-74.242187 51.378906c-2.695313 1.871094-6.207031 2.089844-9.117188.570313-2.910156-1.519532-4.734375-4.527344-4.742187-7.808594v-61.792969h-8.824219c-14.628906 0-26.484375-11.859375-26.484375-26.484375v-229.515625c0-14.628906 11.855469-26.484375 26.484375-26.484375h335.445313c14.628906 0 26.484374 11.855469 26.484374 26.484375zm0 0" fill="#9ed26a"/><path d="m264.828125 97.101562v17.65625c0 4.875-3.953125 8.828126-8.828125 8.828126h-35.308594c-4.878906 0-8.828125 3.953124-8.828125 8.828124v35.308594c0 4.875-3.953125 8.828125-8.828125 8.828125h-17.65625c-4.875 0-8.828125-3.953125-8.828125-8.828125v-35.308594c0-4.875-3.953125-8.828124-8.828125-8.828124h-35.308594c-4.875 0-8.828124-3.953126-8.828124-8.828126v-17.65625c0-4.875 3.953124-8.824218 8.828124-8.824218h35.308594c4.875 0 8.828125-3.953125 8.828125-8.828125v-35.3125c0-4.875 3.953125-8.828125 8.828125-8.828125h17.65625c4.875 0 8.828125 3.953125 8.828125 8.828125v35.3125c0 4.875 3.949219 8.828125 8.828125 8.828125h35.308594c4.875 0 8.828125 3.949218 8.828125 8.824218zm0 0" fill="#f4f6f8"/><path d="m512 185.378906v229.519532c0 14.625-11.855469 26.480468-26.484375 26.480468h-8.824219v61.792969c-.007812 3.28125-1.832031 6.292969-4.742187 7.8125-2.910157 1.519531-6.421875 1.296875-9.117188-.574219l-12.625-8.738281v-60.292969h8.828125c14.625 0 26.480469-11.855468 26.480469-26.480468v-229.519532c0-14.625-11.855469-26.480468-26.480469-26.480468h26.480469c14.628906 0 26.484375 11.855468 26.484375 26.480468zm0 0" fill="#4a88da"/><path d="m388.414062 26.484375v229.515625c0 14.625-11.855468 26.484375-26.484374 26.484375h-26.480469c14.625 0 26.480469-11.859375 26.480469-26.484375v-229.515625c0-14.628906-11.855469-26.484375-26.480469-26.484375h26.480469c14.628906 0 26.484374 11.855469 26.484374 26.484375zm0 0" fill="#89c053"/><path d="m148.921875 282.484375-25.511719 17.652344-74.242187 51.378906c-2.695313 1.871094-6.207031 2.089844-9.117188.570313-2.910156-1.519532-4.734375-4.527344-4.742187-7.808594v-1.503906l61.617187-42.636719 25.511719-17.652344zm0 0" fill="#89c053"/><g fill="#fff"><path d="m326.621094 220.691406h-52.964844c-4.875 0-8.828125-3.953125-8.828125-8.828125s3.953125-8.828125 8.828125-8.828125h52.964844c4.875 0 8.828125 3.953125 8.828125 8.828125s-3.953125 8.828125-8.828125 8.828125zm0 0"/><path d="m238.34375 220.691406h-176.550781c-4.875 0-8.828125-3.953125-8.828125-8.828125s3.953125-8.828125 8.828125-8.828125h176.550781c4.875 0 8.828125 3.953125 8.828125 8.828125s-3.953125 8.828125-8.828125 8.828125zm0 0"/><path d="m194.207031 256h-8.828125c-4.875 0-8.828125-3.953125-8.828125-8.828125s3.953125-8.828125 8.828125-8.828125h8.828125c4.875 0 8.828125 3.953125 8.828125 8.828125s-3.953125 8.828125-8.828125 8.828125zm0 0"/><path d="m150.070312 256h-88.277343c-4.875 0-8.828125-3.953125-8.828125-8.828125s3.953125-8.828125 8.828125-8.828125h88.277343c4.875 0 8.828126 3.953125 8.828126 8.828125s-3.953126 8.828125-8.828126 8.828125zm0 0"/><path d="m450.207031 370.757812h-52.964843c-4.875 0-8.828126-3.953124-8.828126-8.828124s3.953126-8.828126 8.828126-8.828126h52.964843c4.875 0 8.828125 3.953126 8.828125 8.828126s-3.953125 8.828124-8.828125 8.828124zm0 0"/><path d="m361.929688 370.757812h-176.550782c-4.875 0-8.828125-3.953124-8.828125-8.828124s3.953125-8.828126 8.828125-8.828126h176.550782c4.875 0 8.828124 3.953126 8.828124 8.828126s-3.953124 8.828124-8.828124 8.828124zm0 0"/><path d="m317.792969 406.070312h-8.828125c-4.875 0-8.828125-3.953124-8.828125-8.828124s3.953125-8.828126 8.828125-8.828126h8.828125c4.875 0 8.828125 3.953126 8.828125 8.828126s-3.953125 8.828124-8.828125 8.828124zm0 0"/><path d="m273.65625 406.070312h-88.277344c-4.875 0-8.828125-3.953124-8.828125-8.828124s3.953125-8.828126 8.828125-8.828126h88.277344c4.875 0 8.828125 3.953126 8.828125 8.828126s-3.953125 8.828124-8.828125 8.828124zm0 0"/><path d="m317.792969 335.449219h-8.828125c-4.875 0-8.828125-3.953125-8.828125-8.828125s3.953125-8.828125 8.828125-8.828125h8.828125c4.875 0 8.828125 3.953125 8.828125 8.828125s-3.953125 8.828125-8.828125 8.828125zm0 0"/><path d="m273.65625 335.449219h-88.277344c-4.875 0-8.828125-3.953125-8.828125-8.828125s3.953125-8.828125 8.828125-8.828125h88.277344c4.875 0 8.828125 3.953125 8.828125 8.828125s-3.953125 8.828125-8.828125 8.828125zm0 0"/><path d="m450.207031 335.449219h-97.105469c-4.875 0-8.824218-3.953125-8.824218-8.828125s3.949218-8.828125 8.824218-8.828125h97.105469c4.875 0 8.828125 3.953125 8.828125 8.828125s-3.953125 8.828125-8.828125 8.828125zm0 0"/></g></svg>