<svg height="512pt" viewBox="0 0 512 512" width="512pt" xmlns="http://www.w3.org/2000/svg"><g fill-rule="evenodd"><path d="m512 256c0 141.386719-114.613281 256-256 256s-256-114.613281-256-256 114.613281-256 256-256 256 114.613281 256 256zm0 0" fill="#8ec05d"/><path d="m414.898438 247.171875h-150.070313v-150.070313c0-4.875-3.953125-8.824218-8.828125-8.824218s-8.828125 3.949218-8.828125 8.824218v150.070313h-150.070313c-4.875 0-8.824218 3.953125-8.824218 8.828125s3.949218 8.828125 8.824218 8.828125h150.070313v150.070313c0 4.875 3.953125 8.824218 8.828125 8.824218s8.828125-3.949218 8.828125-8.824218v-150.070313h150.070313c4.875 0 8.824218-3.953125 8.824218-8.828125s-3.949218-8.828125-8.824218-8.828125zm0 0" fill="#b8df88"/><g fill="#9bcc60"><path d="m44.136719 203.035156c-2.777344 0-5.394531-1.308594-7.0625-3.53125-1.664063-2.222656-2.1875-5.101562-1.410157-7.769531 28.933594-97.667969 118.472657-164.824219 220.335938-165.25 4.875 0 8.828125 3.949219 8.828125 8.824219 0 4.878906-3.953125 8.828125-8.828125 8.828125-94.039062.386719-176.703125 62.375-203.414062 152.542969-1.097657 3.757812-4.535157 6.34375-8.449219 6.355468zm0 0"/><path d="m38.117188 300.136719c-4.328126-.003907-8.015626-3.148438-8.703126-7.421875-1.953124-12.140625-2.933593-24.417969-2.929687-36.714844 0-4.875 3.949219-8.828125 8.824219-8.828125 4.878906 0 8.828125 3.953125 8.828125 8.828125.003906 11.355469.910156 22.695312 2.710937 33.90625.773438 4.8125-2.496094 9.339844-7.308594 10.117188-.46875.078124-.945312.117187-1.421874.113281zm0 0"/></g></g></svg>