<svg id="icons" height="512" viewBox="0 0 60 60" width="512" xmlns="http://www.w3.org/2000/svg"><path d="m44.96 14.53a1.771 1.771 0 0 0 -.81-1.15l-20.24-12.13a1.8 1.8 0 0 0 -1.82 0l-20.24 12.13a1.771 1.771 0 0 0 -.81 1.15 1.472 1.472 0 0 0 -.04.36v23.22a1.758 1.758 0 0 0 .85 1.51l20.24 12.13a1.781 1.781 0 0 0 1.82 0l4.32-2.59 16.77-22.03v-12.24a1.472 1.472 0 0 0 -.04-.36z" fill="#3560d8"/><path d="m23 27.38v24.62a1.734 1.734 0 0 1 -.91-.25l-20.24-12.13a1.758 1.758 0 0 1 -.85-1.51v-23.22a1.472 1.472 0 0 1 .04-.36l20.99 12.58a1.87 1.87 0 0 0 .97.27z" fill="#2751af"/><path d="m45 14.89v12.24l-16.77 22.03-4.32 2.59a1.734 1.734 0 0 1 -.91.25v-24.62a1.87 1.87 0 0 0 .97-.27l20.99-12.58a1.472 1.472 0 0 1 .04.36z" fill="#1a4187"/><circle cx="43" cy="43" fill="#f7d33c" r="16"/><path d="m52 42v2a1 1 0 0 1 -1 1h-6v6a1 1 0 0 1 -1 1h-2a1 1 0 0 1 -1-1v-6h-6a1 1 0 0 1 -1-1v-2a1 1 0 0 1 1-1h6v-6a1 1 0 0 1 1-1h2a1 1 0 0 1 1 1v6h6a1 1 0 0 1 1 1z" fill="#fff"/></svg>