<svg id="Capa_1" enable-background="new 0 0 497 497" height="512" viewBox="0 0 497 497" width="512" xmlns="http://www.w3.org/2000/svg"><g><path d="m452 53.5-30 45 30 45h30c8.284 0 15-6.716 15-15v-60c0-8.284-6.716-15-15-15z" fill="#3b88f5"/><path d="m0 68.5v60c0 8.284 6.716 15 15 15h437c8.284 0 15-6.716 15-15v-60c0-8.284-6.716-15-15-15h-437c-8.284 0-15 6.716-15 15z" fill="#28abfa"/><path d="m452 203.5-30 45 30 45h30c8.284 0 15-6.716 15-15v-60c0-8.284-6.716-15-15-15z" fill="#3b88f5"/><path d="m0 218.5v60c0 8.284 6.716 15 15 15h437c8.284 0 15-6.716 15-15v-60c0-8.284-6.716-15-15-15h-437c-8.284 0-15 6.716-15 15z" fill="#28abfa"/><path d="m452 353.5-30 45 30 45h30c8.284 0 15-6.716 15-15v-60c0-8.284-6.716-15-15-15z" fill="#3b88f5"/><path d="m0 368.5v60c0 8.284 6.716 15 15 15h437c8.284 0 15-6.716 15-15v-60c0-8.284-6.716-15-15-15h-437c-8.284 0-15 6.716-15 15z" fill="#28abfa"/></g></svg>