<svg id="Icons" height="512" viewBox="0 0 60 60" width="512" xmlns="http://www.w3.org/2000/svg"><path d="m51 29-5.051 27.553a3 3 0 0 1 -2.949 2.447h-26a3 3 0 0 1 -2.949-2.447l-5.051-27.553v-1h42z" fill="#9ebbce"/><path d="m16 6.003h28v18.997h-28z" fill="#35718a"/><ellipse cx="30" cy="6.002" fill="#4184a9" rx="14" ry="5.002"/><path d="m44 15.007c0 2.757-6.268 4.993-14 4.993s-14-2.236-14-4.993v9.993h28z" fill="#4184a9"/><rect fill="#b0ccdd" height="5" rx="2" width="46" x="7" y="24"/><g fill="#7a93a0"><path d="m22 54a1 1 0 0 1 -.986-.844l-3-19a1 1 0 1 1 1.974-.312l3 19a1 1 0 0 1 -.831 1.143.924.924 0 0 1 -.157.013z"/><path d="m38 54a.924.924 0 0 1 -.157-.013 1 1 0 0 1 -.831-1.143l3-19a1 1 0 1 1 1.974.312l-3 19a1 1 0 0 1 -.986.844z"/><path d="m30 54a1 1 0 0 1 -1-1v-19a1 1 0 0 1 2 0v19a1 1 0 0 1 -1 1z"/></g></svg>