<svg id="icons" height="512" viewBox="0 0 60 60" width="512" xmlns="http://www.w3.org/2000/svg"><path d="m51 45v-42a2 2 0 0 0 -2-2h-38a2 2 0 0 0 -2 2v42z" fill="#e1efff"/><path d="m28.89 36.512-5.542-6.22a1.385 1.385 0 0 1 1.1-2.29h2.552v-19.002a2 2 0 0 1 2-2h2a2 2 0 0 1 2 2v19h2.541a1.386 1.386 0 0 1 1.11 2.29l-5.551 6.222a1.5 1.5 0 0 1 -2.21 0z" fill="#3c96d3"/><path d="m59 39v18a2 2 0 0 1 -2 2h-54a2 2 0 0 1 -2-2v-18a2 2 0 0 1 2-2h11a2 2 0 0 1 2 2v1a3 3 0 0 0 3 3h22a3 3 0 0 0 3-3v-1a2 2 0 0 1 2-2h11a2 2 0 0 1 2 2z" fill="#50a8ff"/><rect fill="#3c96d3" height="5" rx="2.5" width="28" x="16" y="47"/></svg>