<svg id="Icons" height="512" viewBox="0 0 60 60" width="512" xmlns="http://www.w3.org/2000/svg"><path d="m43 57a2.006 2.006 0 0 1 -2 2h-38a2.006 2.006 0 0 1 -2-2v-54a2.006 2.006 0 0 1 2-2h28.17a2.006 2.006 0 0 1 1.42.59l9.82 9.82a2.006 2.006 0 0 1 .59 1.42z" fill="#dce5e3"/><path d="m32.95 50.16a3.69 3.69 0 0 1 -1.02.33l-8.47 1.49a1.243 1.243 0 0 1 -1.44-1.44l1.49-8.47a4.08 4.08 0 0 1 .34-1.02l5.15 3.95z" fill="#8f5c4a"/><path d="m52.017 30-.16 1.525-17.907 17.915a3.747 3.747 0 0 1 -1 .72l-9.1-9.11a3.712 3.712 0 0 1 .71-1l17.915-17.907 1.458-.143z" fill="#e1c53a"/><path d="m45.815 20.158.012-1.366 2.683-2.682a3.79 3.79 0 0 1 5.36 0l4.02 4.02a3.79 3.79 0 0 1 0 5.36l-2.682 2.683-1.308.127z" fill="#c74c5e"/><path d="m46.473 18.524h4.74v13.272h-4.74z" fill="#ebf7f4" transform="matrix(.707 -.707 .707 .707 -3.485 41.906)"/><g fill="#a9b7b3"><path d="m42.82 12h-8.82a2.006 2.006 0 0 1 -2-2v-8.82a2.017 2.017 0 0 1 .59.41l9.82 9.82a2.017 2.017 0 0 1 .41.59z"/><path d="m36 18h-28a1 1 0 0 1 0-2h28a1 1 0 0 1 0 2z"/><path d="m36 24h-28a1 1 0 0 1 0-2h28a1 1 0 0 1 0 2z"/><path d="m28 30h-20a1 1 0 0 1 0-2h20a1 1 0 0 1 0 2z"/><path d="m21 36h-13a1 1 0 0 1 0-2h13a1 1 0 0 1 0 2z"/></g></svg>