<svg height="512" viewBox="0 0 50 58" width="512" xmlns="http://www.w3.org/2000/svg"><g id="001---Data-Filters" fill="none"><path id="Path" d="m7.88 34.64 13.44 11.76c.4323727.3827839.6799412.9325317.68 1.51v9.09c.0010489.3465932.1814922.6679286.4768822.8492369.2953899.1813084.6635996.1967323.9731178.0407631l4-2c.3401143-.1652369.5543423-.5118967.55-.89v-7.09c.0000588-.5774683.2476273-1.1272161.68-1.51l13.44-11.76z" fill="#bbc1ce"/><path id="Path" d="m0 26v5c0 2.761 11.193 5 25 5s25-2.239 25-5v-5z" fill="#8b93a2"/><path id="Path" d="m11.02 21.85c-6.65.9-11.02 2.43-11.02 4.15 0 2.71 10.8 4.92 24.28 4.99.24.01.48.01.72.01s.48 0 .72-.01c13.48-.07 24.28-2.28 24.28-4.99 0-1.72-4.37-3.25-11.02-4.15z" fill="#bbc1ce"/><path id="Path" d="m39 22v5c0 2.209-6.268 4-14 4s-14-1.791-14-4v-5z" fill="#1c85ad"/><path id="Path" d="m37.11 20c1.2.59 1.89 1.27 1.89 2 0 2.21-6.27 4-14 4s-14-1.79-14-4c0-.73.69-1.41 1.89-2z" fill="#136b87"/><path id="Path" d="m39 13v5c0 2.209-6.268 4-14 4s-14-1.791-14-4v-5z" fill="#1c85ad"/><path id="Path" d="m37.11 11c1.2.59 1.89 1.27 1.89 2 0 2.21-6.27 4-14 4s-14-1.79-14-4c0-.73.69-1.41 1.89-2z" fill="#136b87"/><path id="Path" d="m39 4v5c0 2.209-6.268 4-14 4s-14-1.791-14-4v-5z" fill="#1c85ad"/><ellipse id="Oval" cx="25" cy="4" fill="#136b87" rx="14" ry="4"/></g></svg>