<svg height="512pt" viewBox="0 0 512 512.00421" width="512pt" xmlns="http://www.w3.org/2000/svg"><g fill-rule="evenodd"><path d="m320.132812 274.148438 179.941407 172.4375c9.839843 9.289062 13.980469 23.121093 10.855469 36.285156-3.125 13.167968-13.035157 23.667968-25.996094 27.542968-12.964844 3.878907-27.011719.546876-36.851563-8.742187l-183.03125-175.261719zm0 0" fill="#a38876"/><path d="m423.726562 211.863281c0 117.007813-94.855468 211.859375-211.863281 211.859375-117.007812 0-211.85937475-94.851562-211.85937475-211.859375 0-117.007812 94.85156275-211.863281 211.85937475-211.863281 117.007813 0 211.863281 94.855469 211.863281 211.863281zm0 0" fill="#72d6f1"/><g fill="#a1ebff"><path d="m64.453125 123.585938c-3.246094-.003907-6.230469-1.789063-7.765625-4.652344-1.535156-2.859375-1.378906-6.328125.410156-9.039063 34.253906-52.09375 92.429688-83.445312 154.773438-83.410156 4.878906 0 8.828125 3.949219 8.828125 8.824219 0 4.878906-3.949219 8.828125-8.828125 8.828125-56.402344-.011719-109.03125 28.359375-140.019532 75.484375-1.640624 2.484375-4.421874 3.976562-7.398437 3.964844zm0 0"/><path d="m38.851562 185.378906c-2.648437 0-5.160156-1.191406-6.839843-3.242187-1.675781-2.054688-2.339844-4.753907-1.808594-7.351563 1.4375-7.054687 3.289063-14.019531 5.542969-20.859375 1.523437-4.628906 6.515625-7.148437 11.148437-5.621093 4.632813 1.523437 7.148438 6.515624 5.621094 11.148437-2.03125 6.183594-3.703125 12.484375-5.003906 18.863281-.839844 4.113282-4.460938 7.066406-8.660157 7.0625zm0 0"/></g></g></svg>