<svg id="Icons" height="512" viewBox="0 0 60 60" width="512" xmlns="http://www.w3.org/2000/svg"><path d="m41 50v7a2.006 2.006 0 0 1 -2 2h-34a4.012 4.012 0 0 1 -4-4 18.164 18.164 0 0 1 1-5z" fill="#bfdbf0"/><path d="m43 3v46a2.006 2.006 0 0 1 -2 2h-36a4.012 4.012 0 0 0 -4 4v-50a4.012 4.012 0 0 1 4-4h36a2.006 2.006 0 0 1 2 2z" fill="#4184a9"/><rect fill="#e1efff" height="9" rx="1" width="24" x="10" y="7"/><path d="m27 22h-12a1 1 0 0 1 0-2h12a1 1 0 0 1 0 2z" fill="#265c6d"/><path d="m24 26h-7a1 1 0 0 1 0-2h7a1 1 0 0 1 0 2z" fill="#265c6d"/><path d="m34.14 41.952a3.661 3.661 0 0 1 -.87.34l-10.63 2.67a1.324 1.324 0 0 1 -1.6-1.6l2.67-10.63a3.661 3.661 0 0 1 .34-.87l5.95 4.138z" fill="#bc874d"/><path d="m54.86 21.441-19.9 19.891a3.283 3.283 0 0 1 -.82.62l-10.09-10.09a3.288 3.288 0 0 1 .62-.821l19.9-19.891 1.43-.15 9 9z" fill="#e3c84c"/><path d="m24.843 24.166h29.129v4.855h-29.129z" fill="#c7af3e" transform="matrix(.707 -.707 .707 .707 -7.262 35.653)"/><path d="m58.28 18.011-3.42 3.43-10.29-10.291 3.42-3.43a2.414 2.414 0 0 1 3.44 0l6.85 6.85a2.416 2.416 0 0 1 0 3.441z" fill="#cd4c60"/></svg>